<svg xmlns="http://www.w3.org/2000/svg" viewBox="0 0 24 24" width="24px" height="24px" fill="#000000">
  <path d="M22.23 0H1.77C.79 0 0 .774 0 1.729v20.542C0 23.226.79 24 1.77 24h20.46C23.21 24 24 23.226 24 22.271V1.729C24 .774 23.21 0 22.23 0zM7.12 20.452H3.56V9.001h3.56v11.451zM5.34 7.475c-1.138 0-2.06-.933-2.06-2.081 0-1.149.922-2.082 2.06-2.082s2.06.933 2.06 2.082c0 1.148-.922 2.081-2.06 2.081zm15.112 12.977h-3.56v-5.604c0-1.337-.026-3.062-1.866-3.062-1.867 0-2.154 1.46-2.154 2.969v5.697h-3.56V9.001h3.417v1.561h.048c.476-.9 1.637-1.846 3.368-1.846 3.6 0 4.268 2.369 4.268 5.448v6.289z"/>
</svg>
