<svg xmlns="http://www.w3.org/2000/svg" viewBox="0 0 24 24" width="24px" height="24px" fill="#000000">
  <path d="M9.5 4.3c0-.6.6-1 1.2-.8 0 0 2 .8 2.5.9 0 0 1 .2 1.5.2 0-1 .1-2.1.1-2.8 0-.5.5-1 .9-1h2.4c.5 0 1 .4 1 .9 0 .8-.1 2-.1 2.4.4.1.9.2 1.4.3.2.1.4.1.6.2.5.1 1 .3 1.3.6.3.3.5.7.5 1.2v4c0 .5-.4 1-.9 1-.3 0-.7-.1-1-.2-2.6-.8-3.3-2.5-3.4-2.8v6.1c0 3.6-2.8 6.4-6.3 6.4-2.7 0-5-1.6-5.8-4-.1-.4 0-.8.3-1 .3-.3.7-.4 1.1-.2 1.4.5 2.5.3 3.3-.5.8-.8 1.1-1.9.8-3-.1-.5-.4-1.1-.8-1.4-.4-.4-1-.6-1.6-.6-.2 0-.4 0-.6.1-.4.1-.7.2-1.1.2-.6 0-1-.5-1-1v-4c0-.6.5-1 1-1 .2 0 .5 0 .7.1.4.1.7.2 1.1.2.1 0 .3 0 .4-.1.1 0 .3-.1.4-.1 1.4-.5 2.4-1.8 2.5-3.3v-3.1z" />
</svg>

